  0
SECTION
  2
HEADER
  9
$ACADVER
  1
AC1009
  9
$INSBASE
 10
0.0
 20
0.0
 30
0.0
  9
$EXTMIN
 10
766207.4179468154907227
 20
2956695.7391354590654373
 30
0.0
  9
$EXTMAX
 10
770151.1634177715750411
 20
2959882.5948091298341751
 30
286389.9063363652094267
  9
$LIMMIN
 10
0.0
 20
0.0
  9
$LIMMAX
 10
12.0
 20
9.0
  9
$ORTHOMODE
 70
     0
  9
$REGENMODE
 70
     1
  9
$FILLMODE
 70
     1
  9
$QTEXTMODE
 70
     0
  9
$MIRRTEXT
 70
     1
  9
$DRAGMODE
 70
     2
  9
$LTSCALE
 40
1.0
  9
$OSMODE
 70
   935
  9
$ATTMODE
 70
     2
  9
$TEXTSIZE
 40
0.2
  9
$TRACEWID
 40
0.05
  9
$TEXTSTYLE
  7
STANDARD
  9
$CLAYER
  8
VOLPE
  9
$CELTYPE
  6
BYLAYER
  9
$CECOLOR
 62
   256
  9
$DIMSCALE
 40
1.0
  9
$DIMASZ
 40
0.18
  9
$DIMEXO
 40
0.0625
  9
$DIMDLI
 40
0.38
  9
$DIMRND
 40
0.0
  9
$DIMDLE
 40
0.0
  9
$DIMEXE
 40
0.18
  9
$DIMTP
 40
0.0
  9
$DIMTM
 40
0.0
  9
$DIMTXT
 40
0.18
  9
$DIMCEN
 40
0.09
  9
$DIMTSZ
 40
0.0
  9
$DIMTOL
 70
     0
  9
$DIMLIM
 70
     0
  9
$DIMTIH
 70
     1
  9
$DIMTOH
 70
     1
  9
$DIMSE1
 70
     0
  9
$DIMSE2
 70
     0
  9
$DIMTAD
 70
     0
  9
$DIMZIN
 70
     0
  9
$DIMBLK
  1

  9
$DIMASO
 70
     1
  9
$DIMSHO
 70
     1
  9
$DIMPOST
  1

  9
$DIMAPOST
  1

  9
$DIMALT
 70
     0
  9
$DIMALTD
 70
     2
  9
$DIMALTF
 40
25.3999999999999986
  9
$DIMLFAC
 40
1.0
  9
$DIMTOFL
 70
     0
  9
$DIMTVP
 40
0.0
  9
$DIMTIX
 70
     0
  9
$DIMSOXD
 70
     0
  9
$DIMSAH
 70
     0
  9
$DIMBLK1
  1

  9
$DIMBLK2
  1

  9
$DIMSTYLE
  2
STANDARD
  9
$DIMCLRD
 70
     0
  9
$DIMCLRE
 70
     0
  9
$DIMCLRT
 70
     0
  9
$DIMTFAC
 40
1.0
  9
$DIMGAP
 40
0.09
  9
$LUNITS
 70
     2
  9
$LUPREC
 70
     4
  9
$SKETCHINC
 40
0.1
  9
$FILLETRAD
 40
0.5
  9
$AUNITS
 70
     0
  9
$AUPREC
 70
     0
  9
$MENU
  1
.
  9
$ELEVATION
 40
0.0
  9
$PELEVATION
 40
0.0
  9
$THICKNESS
 40
0.0
  9
$LIMCHECK
 70
     0
  9
$BLIPMODE
 70
     0
  9
$CHAMFERA
 40
0.0
  9
$CHAMFERB
 40
0.0
  9
$SKPOLY
 70
     0
  9
$TDCREATE
 40
2457616.2430439819581807
  9
$TDUPDATE
 40
2459706.4391666669398546
  9
$TDINDWG
 40
4.6292708448999997
  9
$TDUSRTIMER
 40
4.6292708448999997
  9
$USRTIMER
 70
     1
  9
$ANGBASE
 50
0.0
  9
$ANGDIR
 70
     0
  9
$PDMODE
 70
     0
  9
$PDSIZE
 40
0.0
  9
$PLINEWID
 40
0.0
  9
$COORDS
 70
     2
  9
$SPLFRAME
 70
     0
  9
$SPLINETYPE
 70
     6
  9
$SPLINESEGS
 70
     8
  9
$ATTDIA
 70
     1
  9
$ATTREQ
 70
     1
  9
$HANDLING
 70
     1
  9
$HANDSEED
  5
131933
  9
$SURFTAB1
 70
     6
  9
$SURFTAB2
 70
     6
  9
$SURFTYPE
 70
     6
  9
$SURFU
 70
     6
  9
$SURFV
 70
     6
  9
$UCSNAME
  2

  9
$UCSORG
 10
0.0
 20
0.0
 30
0.0
  9
$UCSXDIR
 10
1.0
 20
0.0
 30
0.0
  9
$UCSYDIR
 10
0.0
 20
1.0
 30
0.0
  9
$PUCSNAME
  2

  9
$PUCSORG
 10
0.0
 20
0.0
 30
0.0
  9
$PUCSXDIR
 10
1.0
 20
0.0
 30
0.0
  9
$PUCSYDIR
 10
0.0
 20
1.0
 30
0.0
  9
$USERI1
 70
     0
  9
$USERI2
 70
     0
  9
$USERI3
 70
     0
  9
$USERI4
 70
     0
  9
$USERI5
 70
     0
  9
$USERR1
 40
0.0
  9
$USERR2
 40
0.0
  9
$USERR3
 40
0.0
  9
$USERR4
 40
0.0
  9
$USERR5
 40
0.0
  9
$WORLDVIEW
 70
     1
  9
$SHADEDGE
 70
     3
  9
$SHADEDIF
 70
    70
  9
$TILEMODE
 70
     1
  9
$MAXACTVP
 70
    64
  9
$PLIMCHECK
 70
     0
  9
$PEXTMIN
 10
1.0000000000000000E+20
 20
1.0000000000000000E+20
 30
1.0000000000000000E+20
  9
$PEXTMAX
 10
-1.0000000000000000E+20
 20
-1.0000000000000000E+20
 30
-1.0000000000000000E+20
  9
$PLIMMIN
 10
0.0
 20
0.0
  9
$PLIMMAX
 10
12.0
 20
9.0
  9
$UNITMODE
 70
     0
  9
$VISRETAIN
 70
     1
  9
$PLINEGEN
 70
     0
  9
$PSLTSCALE
 70
     1
  0
ENDSEC
  0
SECTION
  2
TABLES
  0
TABLE
  2
VPORT
 70
     1
  0
VPORT
  2
*ACTIVE
 70
     0
 10
0.0
 20
0.0
 11
1.0
 21
1.0
 12
0.0
 22
0.0
 13
0.0
 23
0.0
 14
0.5
 24
0.5
 15
0.5
 25
0.5
 16
0.0
 26
0.0
 36
8551.8702942612762854
 17
768198.8963742016348988
 27
2958273.9947276101447642
 37
-3543.5501508555580585
 40
3782.5397912447251656
 41
1.61453744493392
 42
50.0
 43
0.0
 44
0.0
 50
0.0
 51
0.0
 71
     0
 72
   100
 73
     1
 74
     3
 75
     0
 76
     0
 77
     0
 78
     0
  0
ENDTAB
  0
TABLE
  2
LTYPE
 70
     2
  0
LTYPE
  2
CONTINUOUS
 70
     0
  3
Solid line
 72
    65
 73
     0
 40
0.0
  0
ENDTAB
  0
TABLE
  2
LAYER
 70
    35
  0
LAYER
  2
0
 70
     0
 62
     7
  6
CONTINUOUS
  0
LAYER
  2
VOLPE
 70
     0
 62
     1
  6
CONTINUOUS
  0
ENDTAB
  0
TABLE
  2
STYLE
 70
     1
  0
STYLE
  2
STANDARD
 70
     0
 40
0.0
 41
1.0
 50
0.0
 71
     0
 42
0.2
  3
txt
  4

  0
ENDTAB
  0
TABLE
  2
VIEW
 70
     2
  0
ENDTAB
  0
TABLE
  2
UCS
 70
     0
  0
ENDTAB
  0
TABLE
  2
APPID
 70
     7
  0
APPID
  2
ACAD
 70
     0
  0
APPID
  2
ACAD_MLEADERVER
 70
     0
  0
APPID
  2
ACAD_NAV_VCDISPLAY
 70
     0
  0
APPID
  2
ACAECLAYERSTANDARD
 70
     0
  0
APPID
  2
ACCMTRANSPARENCY
 70
     0
  0
APPID
  2
ACAD_EXEMPT_FROM_CAD_STANDARDS
 70
     0
  0
APPID
  2
ACAD_TC
 70
     0
  0
ENDTAB
  0
TABLE
  2
DIMSTYLE
 70
     2
  0
DIMSTYLE
  2
STANDARD
 70
     0
  3

  4

  5

  6

  7

 40
1.0
 41
0.18
 42
0.0625
 43
0.38
 44
0.18
 45
0.0
 46
0.0
 47
0.0
 48
0.0
140
0.18
141
0.09
142
0.0
143
25.3999999999999986
144
1.0
145
0.0
146
1.0
147
0.09
 71
     0
 72
     0
 73
     1
 74
     1
 75
     0
 76
     0
 77
     0
 78
     0
170
     0
171
     2
172
     0
173
     0
174
     0
175
     0
176
     0
177
     0
178
     0
  0
ENDTAB
  0
ENDSEC
  0
SECTION
  2
BLOCKS
  0
BLOCK
  8
0
  2
$MODEL_SPACE
 70
     0
 10
0.0
 20
0.0
 30
0.0
  3
$MODEL_SPACE
  1

  0
ENDBLK
  5
21
  8
0
  0
BLOCK
 67
     1
  8
0
  2
$PAPER_SPACE
 70
     0
 10
0.0
 20
0.0
 30
0.0
  3
$PAPER_SPACE
  1

  0
ENDBLK
  5
1D
 67
     1
  8
0
  0
ENDSEC
  0
SECTION
  2
ENTITIES
  0
POLYLINE
  5
93842
  8
VOLPE
 66
     1
 10
0.0
 20
0.0
 30
0.0
  0
VERTEX
  5
131901
  8
VOLPE
 10
767732.7265851228730753
 20
2957940.6835004240274429
 30
0.0
  0
VERTEX
  5
131902
  8
VOLPE
 10
767880.5290177987189963
 20
2957854.0570134590379894
 30
0.0
  0
VERTEX
  5
131903
  8
VOLPE
 10
767975.9150369092822075
 20
2957800.0999052007682621
 30
0.0
  0
VERTEX
  5
131904
  8
VOLPE
 10
768110.0360730886459351
 20
2957724.3708463008515537
 30
0.0
  0
VERTEX
  5
131905
  8
VOLPE
 10
768196.490018293261528
 20
2957675.1720974151976407
 30
0.0
  0
VERTEX
  5
131906
  8
VOLPE
 10
768299.7433162404922768
 20
2957616.9443259472027421
 30
0.0
  0
VERTEX
  5
131907
  8
VOLPE
 10
768440.9138830601004884
 20
2957537.3386321510188282
 30
0.0
  0
VERTEX
  5
131908
  8
VOLPE
 10
768474.8884082065196708
 20
2957518.8147083749063313
 30
0.0
  0
VERTEX
  5
131909
  8
VOLPE
 10
768498.0302716047735885
 20
2957518.7057846491225064
 30
0.0
  0
VERTEX
  5
13190A
  8
VOLPE
 10
768511.7897664606571198
 20
2957526.1499997680075467
 30
0.0
  0
VERTEX
  5
13190B
  8
VOLPE
 10
768519.35209165525157
 20
2957543.3609332889318466
 30
0.0
  0
VERTEX
  5
13190C
  8
VOLPE
 10
768604.2642083540558815
 20
2957678.8446643650531769
 30
0.0
  0
VERTEX
  5
13190D
  8
VOLPE
 10
768627.0205736011266708
 20
2957704.6006972719915211
 30
0.0
  0
VERTEX
  5
13190E
  8
VOLPE
 10
768638.0812533943681046
 20
2957723.405952662229538
 30
0.0
  0
VERTEX
  5
13190F
  8
VOLPE
 10
768705.8951332720462233
 20
2957862.1400071978569031
 30
0.0
  0
VERTEX
  5
131910
  8
VOLPE
 10
768710.3618563837371767
 20
2957869.9216874008998275
 30
0.0
  0
VERTEX
  5
131911
  8
VOLPE
 10
768703.2435622514458373
 20
2957886.4892179588787258
 30
0.0
  0
VERTEX
  5
131912
  8
VOLPE
 10
768622.800763338804245
 20
2957933.774091615807265
 30
0.0
  0
VERTEX
  5
131913
  8
VOLPE
 10
768503.1813469453481957
 20
2958000.2667791470885277
 30
0.0
  0
VERTEX
  5
131914
  8
VOLPE
 10
768369.7650341837434098
 20
2958074.7765156328678131
 30
0.0
  0
VERTEX
  5
131915
  8
VOLPE
 10
768359.7515969871310517
 20
2958080.4047884638421237
 30
0.0
  0
VERTEX
  5
131916
  8
VOLPE
 10
768370.5165094956755638
 20
2958158.6910943840630352
 30
0.0
  0
VERTEX
  5
131917
  8
VOLPE
 10
768404.9848003387451172
 20
2958362.9398194700479507
 30
0.0
  0
VERTEX
  5
131918
  8
VOLPE
 10
768412.558608457329683
 20
2958409.5686901211738586
 30
0.0
  0
VERTEX
  5
131919
  8
VOLPE
 10
768419.6389789582462981
 20
2958439.0798029750585556
 30
0.0
  0
VERTEX
  5
13191A
  8
VOLPE
 10
768480.7895536771975458
 20
2958428.9021119489334524
 30
0.0
  0
VERTEX
  5
13191B
  8
VOLPE
 10
768775.2174104214645922
 20
2958379.7180711990222335
 30
0.0
  0
VERTEX
  5
13191C
  8
VOLPE
 10
768901.2534154491731897
 20
2958358.8250018400140107
 30
0.0
  0
VERTEX
  5
13191D
  8
VOLPE
 10
768912.7166893482208252
 20
2958362.5177400191314518
 30
0.0
  0
VERTEX
  5
13191E
  8
VOLPE
 10
768921.9980862647062168
 20
2958380.0094246049411595
 30
0.0
  0
VERTEX
  5
13191F
  8
VOLPE
 10
768971.5008904784917831
 20
2958500.3092105980031192
 30
0.0
  0
VERTEX
  5
131920
  8
VOLPE
 10
768971.8622744679450989
 20
2958510.1784550850279629
 30
0.0
  0
VERTEX
  5
131921
  8
VOLPE
 10
768968.836688220500946
 20
2958520.3848053822293878
 30
0.0
  0
VERTEX
  5
131922
  8
VOLPE
 10
768959.8029084354639053
 20
2958531.5216005588881671
 30
0.0
  0
VERTEX
  5
131923
  8
VOLPE
 10
768948.2130299062700942
 20
2958537.2066318388096988
 30
0.0
  0
VERTEX
  5
131924
  8
VOLPE
 10
768777.3896181510062888
 20
2958565.5414012297987938
 30
0.0
  0
VERTEX
  5
131925
  8
VOLPE
 10
768321.5836414295481518
 20
2958641.7457315330393612
 30
0.0
  0
VERTEX
  5
131926
  8
VOLPE
 10
768247.3742485281545669
 20
2958654.190218242816627
 30
0.0
  0
VERTEX
  5
131927
  8
VOLPE
 10
768039.9315140546532348
 20
2958689.052544369827956
 30
0.0
  0
VERTEX
  5
131928
  8
VOLPE
 10
768039.9315140546532348
 20
2958689.052544369827956
 30
0.0
  0
VERTEX
  5
131929
  8
VOLPE
 10
768039.9315140546532348
 20
2958689.052544369827956
 30
0.0
  0
VERTEX
  5
13192A
  8
VOLPE
 10
768039.9315140546532348
 20
2958689.052544369827956
 30
0.0
  0
VERTEX
  5
13192B
  8
VOLPE
 10
768019.9077891523484141
 20
2958628.517486474942416
 30
0.0
  0
VERTEX
  5
13192C
  8
VOLPE
 10
768008.8464694487629458
 20
2958545.6302702277898788
 30
0.0
  0
VERTEX
  5
13192D
  8
VOLPE
 10
767971.4188935436541215
 20
2958351.8594256588257849
 30
0.0
  0
VERTEX
  5
13192E
  8
VOLPE
 10
767732.7265851228730753
 20
2957940.6835004240274429
 30
0.0
  0
SEQEND
  5
13192F
  8
VOLPE
  0
ENDSEC
  0
EOF
